<svg width="806" height="598.9" xmlns="http://www.w3.org/2000/svg" xmlns:xlink="http://www.w3.org/1999/xlink" xml:space="preserve" enable-background="new 97 97.1 806 598.9" version="1.1">
 <metadata id="metadata413">image/svg+xml</metadata>
 <defs id="defs411">
  <pattern overflow="visible" viewBox="0 -231.7 40 103" id="SVGID_1_" patternUnits="userSpaceOnUse" height="103" width="40" y="696" x="97">
   <g id="g38">
    <polygon id="polygon2" points="0,-128.7 40,-128.7 40,-231.7 0,-231.7   " fill="none"/>
    <g id="g36">
     <polygon id="polygon4" points="0,-128.7 40,-128.7 40,-231.7 0,-231.7    " fill="none"/>
     <polygon id="polygon6" points="34.5,-360.5 37.5,-360.5 37.5,-206 34.5,-206    "/>
     <polygon id="polygon8" points="26.5,-360.5 29.5,-360.5 29.5,-206 26.5,-206    "/>
     <polygon id="polygon10" points="18.5,-360.5 21.5,-360.5 21.5,-206 18.5,-206    "/>
     <polygon id="polygon12" points="10.5,-360.5 13.5,-360.5 13.5,-206 10.5,-206    "/>
     <polygon id="polygon14" points="2.5,-360.5 5.5,-360.5 5.5,-206 2.5,-206    "/>
     <polygon id="polygon16" points="34.5,-257.5 37.5,-257.5 37.5,-103 34.5,-103    "/>
     <polygon id="polygon18" points="26.5,-257.5 29.5,-257.5 29.5,-103 26.5,-103    "/>
     <polygon id="polygon20" points="18.5,-257.5 21.5,-257.5 21.5,-103 18.5,-103    "/>
     <polygon id="polygon22" points="10.5,-257.5 13.5,-257.5 13.5,-103 10.5,-103    "/>
     <polygon id="polygon24" points="2.5,-257.5 5.5,-257.5 5.5,-103 2.5,-103    "/>
     <polygon id="polygon26" points="34.5,-154.5 37.5,-154.5 37.5,0 34.5,0    "/>
     <polygon id="polygon28" points="26.5,-154.5 29.5,-154.5 29.5,0 26.5,0    "/>
     <polygon id="polygon30" points="18.5,-154.5 21.5,-154.5 21.5,0 18.5,0    "/>
     <polygon id="polygon32" points="10.5,-154.5 13.5,-154.5 13.5,0 10.5,0    "/>
     <polygon id="polygon34" points="2.5,-154.5 5.5,-154.5 5.5,0 2.5,0    "/>
    </g>
   </g>
  </pattern>
  <pattern overflow="visible" viewBox="0 -231.7 40 103" id="SVGID_2_" patternUnits="userSpaceOnUse" height="103" width="40" y="696" x="97">
   <g id="g77">
    <polygon id="polygon41" points="0,-128.7 40,-128.7 40,-231.7 0,-231.7   " fill="none"/>
    <g id="g75">
     <polygon id="polygon43" points="0,-128.7 40,-128.7 40,-231.7 0,-231.7    " fill="none"/>
     <polygon id="polygon45" points="34.5,-360.5 37.5,-360.5 37.5,-206 34.5,-206    "/>
     <polygon id="polygon47" points="26.5,-360.5 29.5,-360.5 29.5,-206 26.5,-206    "/>
     <polygon id="polygon49" points="18.5,-360.5 21.5,-360.5 21.5,-206 18.5,-206    "/>
     <polygon id="polygon51" points="10.5,-360.5 13.5,-360.5 13.5,-206 10.5,-206    "/>
     <polygon id="polygon53" points="2.5,-360.5 5.5,-360.5 5.5,-206 2.5,-206    "/>
     <polygon id="polygon55" points="34.5,-257.5 37.5,-257.5 37.5,-103 34.5,-103    "/>
     <polygon id="polygon57" points="26.5,-257.5 29.5,-257.5 29.5,-103 26.5,-103    "/>
     <polygon id="polygon59" points="18.5,-257.5 21.5,-257.5 21.5,-103 18.5,-103    "/>
     <polygon id="polygon61" points="10.5,-257.5 13.5,-257.5 13.5,-103 10.5,-103    "/>
     <polygon id="polygon63" points="2.5,-257.5 5.5,-257.5 5.5,-103 2.5,-103    "/>
     <polygon id="polygon65" points="34.5,-154.5 37.5,-154.5 37.5,0 34.5,0    "/>
     <polygon id="polygon67" points="26.5,-154.5 29.5,-154.5 29.5,0 26.5,0    "/>
     <polygon id="polygon69" points="18.5,-154.5 21.5,-154.5 21.5,0 18.5,0    "/>
     <polygon id="polygon71" points="10.5,-154.5 13.5,-154.5 13.5,0 10.5,0    "/>
     <polygon id="polygon73" points="2.5,-154.5 5.5,-154.5 5.5,0 2.5,0    "/>
    </g>
   </g>
  </pattern>
  <pattern overflow="visible" viewBox="0 -71 71 71" id="SVGID_3_" patternUnits="userSpaceOnUse" height="71" width="71" y="696" x="97">
   <g id="g88">
    <polygon id="polygon80" points="0,0 71,0 71,-71 0,-71   " fill="none"/>
    <g id="g86">
     <polygon id="polygon82" points="0,0 71,0 71,-71 0,-71    " fill="none"/>
     <path id="path84" d="m41.8,-35.5c0,-3.5 -2.8,-6.3 -6.3,-6.3s-6.3,2.8 -6.3,6.3s2.8,6.3 6.3,6.3s6.3,-2.8 6.3,-6.3z" fill="#B3B3B3"/>
    </g>
   </g>
  </pattern>
  <pattern patternTransform="matrix(0.3298 9.457588e-002 9.457588e-002 -0.3298 -10180.4512 -7431.5161)" xlink:href="#SVGID_1_" id="SVGID_4_"/>
  <pattern patternTransform="matrix(-0.3298 9.457588e-002 -9.457588e-002 -0.3298 -21159.9766 -7429.6616)" xlink:href="#SVGID_2_" id="SVGID_5_"/>
  <pattern opacity="0.12" patternTransform="matrix(0.1017 0 0 -0.1017 -13979.8896 -2289.7598)" xlink:href="#SVGID_3_" id="SVGID_6_"/>
  <filter id="svg_1_blur">
   <feGaussianBlur stdDeviation="2" in="SourceGraphic"/>
  </filter>
 </defs>
 <g>
  <title>Layer 1</title>
  <g id="g129">
   <g id="g127">
    <g id="g125">
     <path id="path91" d="m801.3,418.7c-2.9,-15.5 -17.7,-102.5 -32,-144.6c-9.4,-27.7 -13.1,-53 -17,-64.9c-12,-35.7 -33,-65.7 -33,-65.7s-9.5,-13.1 -10.1,-16.3c-0.6,-3.3 -4.7,-8.6 -4.7,-8.6s-17.4,-5.7 -62.3,-5.7s-53.7,5 -53.7,5s-2.4,2.9 -5.9,4.8c-3.5,1.8 -11.7,1.7 -11.7,1.7l-33.4,0c0,0 -0.6,-0.1 -0.9,0.3c-0.4,0.4 -0.6,2 -0.6,2l-133,0l-133.1,0c0,0 -0.3,-1.7 -0.6,-2c-0.4,-0.4 -0.9,-0.3 -0.9,-0.3l-33.4,0c0,0 -8.2,0.2 -11.7,-1.7c-3.5,-1.8 -5.9,-4.8 -5.9,-4.8s-8.8,-5 -53.7,-5c-44.8,0 -62.3,5.7 -62.3,5.7s-4.1,5.3 -4.7,8.6c-0.6,3.3 -10.1,16.3 -10.1,16.3s-21,30 -33,65.7c-4,11.9 -7.7,37.2 -17,64.9c-14.3,42.1 -29.1,129.1 -32,144.6c-4.3,23.2 -4.6,90.2 -4.6,90.2s4.5,53.4 36.2,74.9s56.7,14 56.7,14s33.1,-8.2 57.8,-41.9s56.6,-129.2 56.6,-129.2s2.2,-3 5.7,-5.3s6.3,-2.6 6.3,-2.6l183.7,0.1l183.7,-0.1c0,0 2.8,0.3 6.3,2.6s5.7,5.3 5.7,5.3s31.9,95.4 56.6,129.2s57.8,41.9 57.8,41.9s25,7.5 56.7,-14s36.2,-74.9 36.2,-74.9s-0.3,-67 -4.7,-90.2z" fill="#cccccc"/>
     <g id="g95" opacity="0.06">
      <path id="path93" d="m36.6,276.1c9.4,-27.7 13.1,-53 17,-64.9c12,-35.7 33,-65.7 33,-65.7s9.5,-13.1 10.1,-16.3c0.6,-3.3 4.7,-8.6 4.7,-8.6s17.4,-5.7 62.3,-5.7c44.8,0 53.7,5 53.7,5s2.4,2.9 5.9,4.8c3.5,1.8 11.7,1.7 11.7,1.7l33.4,0c0,0 0.6,-0.1 0.9,0.3c0.4,0.4 0.6,2 0.6,2l133.1,0l133.1,0c0,0 0.3,-1.7 0.6,-2c0.4,-0.4 0.9,-0.3 0.9,-0.3l33.4,0c0,0 8.2,0.2 11.7,-1.7c3.5,-1.8 5.9,-4.8 5.9,-4.8s8.8,-5 53.7,-5s62.3,5.7 62.3,5.7s4.1,5.3 4.7,8.6c0.6,3.3 10.1,16.3 10.1,16.3s21,30 33,65.7c4,11.9 7.7,37.2 17,64.9c14.3,42.1 29.1,129.1 32,144.6c3.9,20.9 4.6,77.3 4.7,88.3c0,-0.1 0,-0.1 0,-0.1s-0.3,-66.9 -4.7,-90.1c-2.9,-15.5 -17.7,-102.5 -32,-144.6c-9.4,-27.7 -13.1,-53 -17,-64.9c-12,-35.7 -33,-65.7 -33,-65.7s-9.5,-13.1 -10.1,-16.3c-0.6,-3.3 -4.7,-8.6 -4.7,-8.6s-17.4,-5.7 -62.3,-5.7s-53.7,5 -53.7,5s-2.4,2.9 -5.9,4.8c-3.5,1.8 -11.7,1.7 -11.7,1.7l-33.4,0c0,0 -0.6,-0.1 -0.9,0.3c-0.4,0.4 -0.6,2 -0.6,2l-133.1,0l-133.1,0c0,0 -0.3,-1.7 -0.6,-2c-0.4,-0.4 -0.9,-0.3 -0.9,-0.3l-33.4,0c0,0 -8.2,0.2 -11.7,-1.7c-3.5,-1.8 -5.9,-4.8 -5.9,-4.8s-8.8,-5 -53.7,-5c-44.8,0 -62.3,5.7 -62.3,5.7s-4.1,5.3 -4.7,8.6c-0.6,3.3 -10.1,16.3 -10.1,16.3s-21,30 -33,65.7c-4,11.9 -7.7,37.2 -17,64.9c-14.3,42.1 -29.1,129.1 -32,144.6c-4.3,23.1 -4.6,90.1 -4.6,90.1l0,0.1c0.1,-10.9 0.7,-67.4 4.7,-88.3c2.9,-15.4 17.6,-102.5 31.9,-144.6z" fill="#FFFFFF"/>
     </g>
     <path id="path97" d="m351.2,360.1c0,-42.2 -34.3,-76.5 -76.5,-76.5s-76.5,34.3 -76.5,76.5c0,0.7 0,1.3 0.1,2c0,0.7 -0.1,1.3 -0.1,2c0,42.2 34.3,76.5 76.5,76.5s76.5,-34.3 76.5,-76.5c0,-0.7 0,-1.3 -0.1,-2c0,-0.7 0.1,-1.4 0.1,-2z" fill="#b3b3b3"/>
     <circle id="circle99" r="73" cy="356.1" cx="274.7" fill="#cccccc"/>
     <circle id="circle101" r="51.5" cy="356.1" cx="274.7"/>
     <path id="path103" d="m607.8,360.1c0,-42.2 -34.3,-76.5 -76.5,-76.5s-76.5,34.3 -76.5,76.5c0,0.7 0,1.3 0.1,2c0,0.7 -0.1,1.3 -0.1,2c0,42.2 34.3,76.5 76.5,76.5s76.5,-34.3 76.5,-76.5c0,-0.7 0,-1.3 -0.1,-2c0.1,-0.7 0.1,-1.4 0.1,-2z" fill="#b3b3b3"/>
     <circle id="circle105" r="73" cy="356.1" cx="531.3" fill="#cccccc"/>
     <circle id="circle107" r="51.5" cy="356.1" cx="531.3"/>
     <path id="path109" d="m534.8,128.1c-0.4,-3.2 -3.3,-5.6 -6.5,-5.6l0,0l-125.3,0l0,0l-125.3,0l0,0c-3.2,0 -6.1,2.3 -6.5,5.6c-0.1,0.7 -0.1,1.4 -0.1,2.1l0,127.4c0,8.9 7.2,16.1 16.1,16.1l115.8,0l0,0l115.8,0c8.9,0 16.1,-7.2 16.1,-16.1l0,-127.4c0.1,-0.7 0,-1.4 -0.1,-2.1z" fill="#121212"/>
     <circle id="circle111" r="94.3" cy="244.9" cx="652.3" fill="#e3e3e3"/>
     <g id="g123">
      <circle id="circle113" r="94.3" cy="244.9" cx="153.7" fill="#e3e3e3"/>
      <path id="path115" d="m230.4,254.2l9.5,-8.9c0.5,-0.5 0.5,-1.2 0,-1.7l-9.5,-8.9c-0.7,-0.7 -1.9,-0.2 -1.9,0.8l0,8.9l0,8.9c-0.1,1 1.1,1.5 1.9,0.9z" fill="#1F1F1F"/>
      <path id="path117" d="m145,169.9l8.9,0l8.9,0c1,0 1.5,-1.2 0.8,-1.9l-8.9,-9.5c-0.5,-0.5 -1.2,-0.5 -1.7,0l-8.9,9.5c-0.6,0.7 -0.1,1.9 0.9,1.9z" fill="#1F1F1F"/>
      <path id="path119" d="m77.5,234.7l-9.5,8.9c-0.5,0.5 -0.5,1.2 0,1.7l9.5,8.9c0.7,0.7 1.9,0.2 1.9,-0.8l0,-8.9l0,-8.9c0,-1.1 -1.2,-1.6 -1.9,-0.9z" fill="#1F1F1F"/>
      <path id="path121" d="m162.8,318.9l-8.9,0l-8.9,0c-1,0 -1.5,1.2 -0.8,1.9l8.9,9.5c0.5,0.5 1.2,0.5 1.7,0l8.9,-9.5c0.6,-0.7 0.1,-1.9 -0.9,-1.9z" fill="#1F1F1F"/>
     </g>
    </g>
   </g>
  </g>
  <g id="g191">
   <g id="g138">
    <path id="path134" d="m105.2,544.6c-40.5,-2.8 -75.8,-20.3 -87.3,-30.5c-11.5,-10.3 -17.5,-31.6 -17.5,-31.6c-0.4,15 -0.4,26.3 -0.4,26.3s4.5,53.4 36.2,74.9s56.7,14 56.7,14s33.1,-8.2 57.8,-41.9c4.5,-6.2 9.3,-14.5 14.1,-23.8c-0.1,0 -19.2,15.3 -59.6,12.6z" enable-background="new    " fill="#000000" opacity="0.08"/>
    <path id="path136" d="m90,592.6c-12.5,1.8 -31.3,-2 -45.1,-7.7c-13.6,-5.7 -24,-16.4 -24,-16.4c4.2,5.8 9.3,11.1 15.3,15.2c31.7,21.5 56.7,14 56.7,14s11.7,-2.9 26.3,-12.3c0,0 -14.6,5.2 -29.2,7.2z" enable-background="new    " opacity="0.22" fill="#1a1a1a"/>
   </g>
   <g id="g147">
    <path id="path143" d="m700.8,544.6c40.5,-2.8 75.8,-20.3 87.3,-30.5s17.5,-31.5 17.5,-31.5c0.4,15 0.4,26.3 0.4,26.3s-4.5,53.4 -36.2,74.9s-56.7,14 -56.7,14s-33.1,-8.2 -57.8,-41.9c-4.5,-6.2 -9.3,-14.5 -14.1,-23.8c0.1,-0.1 19.2,15.2 59.6,12.5z" enable-background="new    " fill="#000000" opacity="0.08"/>
    <path id="path145" d="m716,592.6c12.5,1.8 31.3,-2 45.1,-7.7c13.6,-5.7 24,-16.4 24,-16.4c-4.2,5.8 -9.3,11.1 -15.3,15.2c-31.7,21.5 -56.7,14 -56.7,14s-11.7,-2.9 -26.3,-12.3c0,0 14.6,5.2 29.2,7.2z" enable-background="new    " opacity="0.22" fill="#000000"/>
   </g>
   <g id="g155">
    <g id="g153">
     <path id="path149" d="m240.5,143.6c6.9,0 12.5,5.6 12.5,12.5l0,18.3c0,6.9 -5.6,12.5 -12.5,12.5s-12.5,-5.6 -12.5,-12.5l0,-18.3c0,-6.9 5.6,-12.5 12.5,-12.5m0,-1.7c-7.8,0 -14.2,6.4 -14.2,14.2l0,18.3c0,7.8 6.4,14.2 14.2,14.2s14.2,-6.4 14.2,-14.2l0,-18.3c0,-7.9 -6.4,-14.2 -14.2,-14.2l0,0z"/>
     <path id="path151" d="m240.5,143.6c-6.9,0 -12.5,5.6 -12.5,12.5l0,18.3c0,6.9 5.6,12.5 12.5,12.5s12.5,-5.6 12.5,-12.5l0,-18.3c0,-6.9 -5.6,-12.5 -12.5,-12.5z" fill="#10111A"/>
    </g>
   </g>
   <g id="g163">
    <g id="g161">
     <path id="path157" d="m565.5,143.6c6.9,0 12.5,5.6 12.5,12.5l0,18.3c0,6.9 -5.6,12.5 -12.5,12.5l0,0c-6.9,0 -12.5,-5.6 -12.5,-12.5l0,-18.3c0,-6.9 5.6,-12.5 12.5,-12.5l0,0m0,-1.7c-7.8,0 -14.2,6.4 -14.2,14.2l0,18.3c0,7.8 6.4,14.2 14.2,14.2s14.2,-6.4 14.2,-14.2l0,-18.3c0,-7.9 -6.4,-14.2 -14.2,-14.2l0,0z"/>
     <path id="path159" d="m565.5,143.6c-6.9,0 -12.5,5.6 -12.5,12.5l0,18.3c0,6.9 5.6,12.5 12.5,12.5s12.5,-5.6 12.5,-12.5l0,-18.3c0,-6.9 -5.6,-12.5 -12.5,-12.5z" fill="#10111A"/>
    </g>
   </g>
   <g id="g189">
    <g id="g169">
     <path id="path165" d="m141.2,247.3c1.4,-2 1.2,-2.9 1.2,-2.9s0.2,-0.9 -1.2,-2.9s-15,-13.6 -15.7,-14c-0.7,-0.4 -28.5,-2.2 -31.4,1.3c-2.9,3.5 -2.6,15.6 -2.6,15.6s-0.3,12.1 2.6,15.6c2.9,3.5 30.7,1.7 31.4,1.3s14.3,-12 15.7,-14z" fill="#1A1A1A"/>
     <path id="path167" d="m141.2,247.3c1.4,-2 1.2,-2.9 1.2,-2.9s0.2,-0.9 -1.2,-2.9c-0.9,-1.3 -6.9,-6.6 -11.2,-10.3c-2.1,3.9 -3.4,8.4 -3.4,13.2c0,4.8 1.2,9.3 3.4,13.2c4.3,-3.7 10.3,-9 11.2,-10.3z" enable-background="new    " opacity="0.25"/>
    </g>
    <g id="g175">
     <path id="path171" d="m151,231.7c2,1.4 2.9,1.2 2.9,1.2s0.9,0.2 2.9,-1.2s13.6,-15 14,-15.7c0.4,-0.7 2.2,-28.5 -1.3,-31.4c-3.5,-2.9 -15.6,-2.6 -15.6,-2.6s-12.1,-0.3 -15.6,2.6c-3.5,2.9 -1.7,30.7 -1.3,31.4c0.5,0.7 12,14.3 14,15.7z" fill="#1A1A1A"/>
     <path id="path173" d="m151,231.7c2,1.4 2.9,1.2 2.9,1.2s0.9,0.2 2.9,-1.2c1.3,-0.9 6.6,-6.9 10.3,-11.2c-3.9,-2.1 -8.4,-3.4 -13.2,-3.4s-9.3,1.2 -13.2,3.4c3.8,4.3 9,10.3 10.3,11.2z" enable-background="new    " opacity="0.25"/>
    </g>
    <g id="g181">
     <path id="path177" d="m213.7,228.9c-2.9,-3.5 -30.7,-1.7 -31.4,-1.3c-0.7,0.4 -14.3,12 -15.7,14s-1.2,2.9 -1.2,2.9s-0.2,0.9 1.2,2.9s15,13.6 15.7,14c0.7,0.4 28.5,2.2 31.4,-1.3c2.9,-3.5 2.6,-15.6 2.6,-15.6s0.3,-12.1 -2.6,-15.6z" fill="#1A1A1A"/>
     <path id="path179" d="m177.9,231.3c-4.3,3.7 -10.3,9 -11.2,10.3c-1.4,2 -1.2,2.9 -1.2,2.9s-0.2,0.9 1.2,2.9c0.9,1.3 6.9,6.6 11.2,10.3c2.1,-3.9 3.4,-8.4 3.4,-13.2c0,-4.8 -1.3,-9.3 -3.4,-13.2z" enable-background="new    " opacity="0.25"/>
    </g>
    <g id="g187">
     <path id="path183" d="m156.8,257.2c-2,-1.4 -2.9,-1.2 -2.9,-1.2s-0.9,-0.2 -2.9,1.2s-13.6,15 -14,15.7s-2.2,28.5 1.3,31.4s15.6,2.6 15.6,2.6s12.1,0.3 15.6,-2.6s1.7,-30.7 1.3,-31.4c-0.4,-0.8 -12,-14.3 -14,-15.7z" fill="#1A1A1A"/>
     <path id="path185" d="m156.8,257.2c-2,-1.4 -2.9,-1.2 -2.9,-1.2s-0.9,-0.2 -2.9,1.2c-1.3,0.9 -6.6,6.9 -10.3,11.2c3.9,2.1 8.4,3.4 13.2,3.4s9.3,-1.2 13.2,-3.4c-3.7,-4.3 -9,-10.3 -10.3,-11.2z" enable-background="new    " opacity="0.25"/>
    </g>
   </g>
  </g>
  <g id="g221">
   <g id="g207">
    <circle id="circle193" r="4.1" cy="316.5" cx="403"/>
    <circle id="circle195" r="4.1" cy="295.6" cx="403"/>
    <circle id="circle197" r="4.1" cy="305.8" cx="396.1"/>
    <circle id="circle199" r="4.1" cy="305.8" cx="381.4"/>
    <circle id="circle201" r="4.1" cy="316.5" cx="388.7"/>
    <circle id="circle203" r="4.1" cy="295.6" cx="388.7"/>
    <circle id="circle205" r="4.1" cy="295.6" cx="374.4"/>
   </g>
   <g id="g219">
    <circle id="circle209" r="4.1" cy="305.8" cx="409.9"/>
    <circle id="circle211" r="4.1" cy="305.8" cx="424.6"/>
    <circle id="circle213" r="4.1" cy="316.5" cx="417.2"/>
    <circle id="circle215" r="4.1" cy="295.6" cx="417.2"/>
    <circle id="circle217" r="4.1" cy="295.6" cx="431.6"/>
   </g>
  </g>
  <g id="g247" opacity="0.12">
   <path id="path223" d="m403,319.6c-2.1,0 -3.8,-1.6 -4.1,-3.6c0,0.2 -0.1,0.3 -0.1,0.5c0,2.3 1.8,4.1 4.1,4.1c2.3,0 4.1,-1.8 4.1,-4.1c0,-0.2 0,-0.3 -0.1,-0.5c-0.1,2 -1.8,3.6 -3.9,3.6z" fill="#FFFFFF"/>
   <path id="path225" d="m403,299.7c2.3,0 4.1,-1.8 4.1,-4.1c0,-0.2 0,-0.3 -0.1,-0.5c-0.2,2 -2,3.6 -4.1,3.6s-3.8,-1.6 -4.1,-3.6c0,0.2 -0.1,0.3 -0.1,0.5c0.2,2.2 2,4.1 4.3,4.1z" fill="#FFFFFF"/>
   <path id="path227" d="m400.2,305.8c0,-0.2 0,-0.3 -0.1,-0.5c-0.2,2 -2,3.6 -4.1,3.6s-3.8,-1.6 -4.1,-3.6c0,0.2 -0.1,0.3 -0.1,0.5c0,2.3 1.8,4.1 4.1,4.1c2.4,0 4.3,-1.8 4.3,-4.1z" fill="#FFFFFF"/>
   <path id="path229" d="m385.4,305.3c-0.2,2 -2,3.6 -4.1,3.6s-3.8,-1.6 -4.1,-3.6c0,0.2 -0.1,0.3 -0.1,0.5c0,2.3 1.8,4.1 4.1,4.1c2.3,0 4.1,-1.8 4.1,-4.1c0.2,-0.2 0.2,-0.3 0.1,-0.5z" fill="#FFFFFF"/>
   <path id="path231" d="m388.8,319.6c-2.1,0 -3.8,-1.6 -4.1,-3.6c0,0.2 -0.1,0.3 -0.1,0.5c0,2.3 1.8,4.1 4.1,4.1c2.3,0 4.1,-1.8 4.1,-4.1c0,-0.2 0,-0.3 -0.1,-0.5c-0.1,2 -1.8,3.6 -3.9,3.6z" fill="#FFFFFF"/>
   <path id="path233" d="m388.8,299.7c2.3,0 4.1,-1.8 4.1,-4.1c0,-0.2 0,-0.3 -0.1,-0.5c-0.2,2 -2,3.6 -4.1,3.6s-3.8,-1.6 -4.1,-3.6c0,0.2 -0.1,0.3 -0.1,0.5c0.1,2.2 2,4.1 4.3,4.1z" fill="#FFFFFF"/>
   <path id="path235" d="m378.6,295.6c0,-0.2 0,-0.3 -0.1,-0.5c-0.2,2 -2,3.6 -4.1,3.6s-3.8,-1.6 -4.1,-3.6c0,0.2 -0.1,0.3 -0.1,0.5c0,2.3 1.8,4.1 4.1,4.1c2.4,0 4.3,-1.9 4.3,-4.1z" fill="#FFFFFF"/>
   <path id="path237" d="m414,305.3c-0.2,2 -2,3.6 -4.1,3.6s-3.8,-1.6 -4.1,-3.6c0,0.2 -0.1,0.3 -0.1,0.5c0,2.3 1.8,4.1 4.1,4.1c2.3,0 4.1,-1.8 4.1,-4.1c0.2,-0.2 0.1,-0.3 0.1,-0.5z" fill="#FFFFFF"/>
   <path id="path239" d="m424.6,308.9c-2.1,0 -3.8,-1.6 -4.1,-3.6c0,0.2 -0.1,0.3 -0.1,0.5c0,2.3 1.8,4.1 4.1,4.1c2.3,0 4.1,-1.8 4.1,-4.1c0,-0.2 0,-0.3 -0.1,-0.5c0,2.1 -1.8,3.6 -3.9,3.6z" fill="#FFFFFF"/>
   <path id="path241" d="m417.3,319.6c-2.1,0 -3.8,-1.6 -4.1,-3.6c0,0.2 -0.1,0.3 -0.1,0.5c0,2.3 1.8,4.1 4.1,4.1c2.3,0 4.1,-1.8 4.1,-4.1c0,-0.2 0,-0.3 -0.1,-0.5c-0.1,2 -1.8,3.6 -3.9,3.6z" fill="#FFFFFF"/>
   <path id="path243" d="m417.3,299.7c2.3,0 4.1,-1.8 4.1,-4.1c0,-0.2 0,-0.3 -0.1,-0.5c-0.2,2 -2,3.6 -4.1,3.6c-2.1,0 -3.8,-1.6 -4.1,-3.6c0,0.2 -0.1,0.3 -0.1,0.5c0.1,2.2 2,4.1 4.3,4.1z" fill="#FFFFFF"/>
   <path id="path245" d="m431.6,298.7c-2.1,0 -3.8,-1.6 -4.1,-3.6c0,0.2 -0.1,0.3 -0.1,0.5c0,2.3 1.8,4.1 4.1,4.1c2.3,0 4.1,-1.8 4.1,-4.1c0,-0.2 0,-0.3 -0.1,-0.5c-0.1,2 -1.8,3.6 -3.9,3.6z" fill="#FFFFFF"/>
  </g>
  <path id="path249" d="m436.6,421.1l-67.9,0c-2.8,0 -4.6,0.6 -4.6,-2.2l0,0c0,-2.8 2.3,-5 5,-5l67.9,0c2.8,0 5,2.3 5,5l0,0c0.1,2.7 -2.6,2.2 -5.4,2.2z" fill="#0B0B0F"/>
  <path id="path251" d="m408.3,418.9l-36.5,0c-0.5,0 -0.9,-0.4 -0.9,-0.9l0,0c0,-1.1 0.9,-2 2,-2l34.2,0c1.1,0 2,0.9 2,2l0,0c0.1,0.5 -0.3,0.9 -0.8,0.9z"/>
  <path id="path253" d="m430.5,419.7l-4.2,0c-0.9,0 -1.7,-0.8 -1.7,-1.7l0,0c0,-1.6 1.3,-2.8 2.8,-2.8l1.9,0c1.6,0 2.8,1.3 2.8,2.8l0,0c0.1,1 -0.6,1.7 -1.6,1.7z"/>
  <g id="g264">
   <g id="g262">
    <path id="path255" d="m530.4,124.4c0,-1 -0.8,-1.9 -1.9,-1.9l-125.5,0l0,0l-125.6,0c-1,0 -1.9,0.8 -1.9,1.9l0,6l0,123.2c0,8.6 7,15.6 15.6,15.6l111.9,0l0,0l111.9,0c8.6,0 15.6,-7 15.6,-15.6l0,-123.1l-0.1,-6.1z" fill="#080808"/>
    <g id="g260" opacity="0.12">
     <path id="path258" d="m275.5,253.6c0,8.6 7,15.6 15.6,15.6l111.9,0l0,0l111.9,0c8.6,0 15.6,-7 15.6,-15.6l0,-106.5l-255,0l0,106.5z" fill="url(#SVGID_6_)"/>
    </g>
   </g>
  </g>
  <g id="g308">
   <g id="g306">
    <g id="g274">
     <g id="g270">
      <path id="path266" d="m709.9,271.1c-14.5,0 -26.3,-11.8 -26.3,-26.3c0,-14.5 11.8,-26.3 26.3,-26.3s26.3,11.8 26.3,26.3s-11.8,26.3 -26.3,26.3z" fill="#1A1A1A"/>
      <path id="path268" d="m709.9,219.6c13.9,0 25.3,11.3 25.3,25.3s-11.3,25.2 -25.3,25.2s-25.3,-11.3 -25.3,-25.3c0,-14 11.4,-25.2 25.3,-25.2m0,-2c-15,0 -27.3,12.2 -27.3,27.3c0,15.1 12.2,27.3 27.3,27.3s27.3,-12.2 27.3,-27.3c0,-15.1 -12.3,-27.3 -27.3,-27.3l0,0z" fill="#0F0F0F"/>
     </g>
     <path id="path272" d="m709.9,226c-10.4,0 -18.9,8.5 -18.9,18.9s8.5,18.9 18.9,18.9s18.9,-8.5 18.9,-18.9c0,-10.4 -8.4,-18.9 -18.9,-18.9zm0,34.9c-8.9,0 -16,-7.2 -16,-16c0,-8.9 7.2,-16 16,-16s16,7.2 16,16c0.1,8.9 -7.1,16 -16,16z" fill="#FF6666"/>
    </g>
    <g id="g284">
     <g id="g280">
      <path id="path276" d="m652.3,328.7c-14.5,0 -26.3,-11.8 -26.3,-26.3s11.8,-26.3 26.3,-26.3s26.3,11.8 26.3,26.3s-11.8,26.3 -26.3,26.3z" fill="#1A1A1A"/>
      <path id="path278" d="m652.3,277.2c13.9,0 25.3,11.3 25.3,25.3s-11.3,25.3 -25.3,25.3s-25.3,-11.3 -25.3,-25.3s11.4,-25.3 25.3,-25.3m0,-2c-15,0 -27.3,12.2 -27.3,27.3c0,15 12.2,27.3 27.3,27.3s27.3,-12.2 27.3,-27.3c0,-15 -12.2,-27.3 -27.3,-27.3l0,0z" fill="#0F0F0F"/>
     </g>
     <polygon id="polygon282" points="666.7000122070312,290.1000061035156 664.7000122070312,288.1000061035156 652.2999877929688,300.5 640,288.1000061035156 638,290.1000061035156 650.2999877929688,302.5 638,314.79998779296875 640,316.79998779296875 652.2999877929688,304.5 664.7000122070312,316.79998779296875 666.7000122070312,314.79998779296875 654.2999877929688,302.5 " fill="#7CB2E8"/>
    </g>
    <g id="g294">
     <g id="g290">
      <path id="path286" d="m594.8,271.1c-14.5,0 -26.3,-11.8 -26.3,-26.3c0,-14.5 11.8,-26.3 26.3,-26.3s26.3,11.8 26.3,26.3s-11.9,26.3 -26.3,26.3z" fill="#1A1A1A"/>
      <path id="path288" d="m594.7,219.6c13.9,0 25.3,11.3 25.3,25.3s-11.3,25.2 -25.3,25.2s-25.3,-11.3 -25.3,-25.3c0,-14 11.4,-25.2 25.3,-25.2m0,-2c-15,0 -27.3,12.2 -27.3,27.3c0,15.1 12.2,27.3 27.3,27.3s27.3,-12.2 27.3,-27.3c0,-15.1 -12.2,-27.3 -27.3,-27.3l0,0z" fill="#0F0F0F"/>
     </g>
     <path id="path292" d="m606.3,230.5l-23,0l-2.8,0l0,2.8l0,23l0,2.8l2.8,0l23,0l2.8,0l0,-2.8l0,-23l0,-2.8l-2.8,0l0,0zm0,25.9l-23,0l0,-23l23,0l0,23z" fill="#FF69F8"/>
    </g>
    <g id="g304">
     <g id="g300">
      <path id="path296" d="m652.3,213.6c-14.5,0 -26.3,-11.8 -26.3,-26.3s11.8,-26.3 26.3,-26.3s26.3,11.8 26.3,26.3s-11.8,26.3 -26.3,26.3z" fill="#1A1A1A"/>
      <path id="path298" d="m652.3,162.1c13.9,0 25.3,11.3 25.3,25.3s-11.3,25.3 -25.3,25.3s-25.3,-11.3 -25.3,-25.3s11.4,-25.3 25.3,-25.3m0,-2c-15,0 -27.3,12.2 -27.3,27.3c0,15.1 12.2,27.3 27.3,27.3s27.3,-12.2 27.3,-27.3c0,-15.1 -12.2,-27.3 -27.3,-27.3l0,0z" fill="#0F0F0F"/>
     </g>
     <path id="path302" d="m668.3,195.3l-16,-27.6l-16,27.6l-1.6,2.8l3.3,0l14.3,0l14.3,0l3.3,0l-1.6,-2.8zm-16,0l-12.7,0l12.7,-21.9l12.7,21.9l-12.7,0z" fill="#40E2A0"/>
    </g>
   </g>
  </g>
  <g id="g320">
   <circle id="circle310" r="20.2" cy="362.1" cx="403" stroke-miterlimit="10" stroke-width="2" stroke="#000000" fill="#050505"/>
   <g id="g318">
    <path id="path312" d="m404.1,368.7l0,-2.8l0,-3.5l0,-6.5c0,-0.5 0.1,-0.8 0.3,-1c0.1,-0.2 0.4,-0.3 0.7,-0.2c0.6,0.2 0.9,0.7 0.9,1.7l0,6.9c0.8,0.4 1.5,0.5 2.1,0.5s1.2,-0.2 1.6,-0.5c1,-0.7 1.5,-1.9 1.5,-3.7c0,-1.9 -0.4,-3.4 -1.2,-4.3c-0.8,-1 -2.1,-1.9 -4.1,-2.6c-1.3,-0.4 -2.5,-0.8 -3.6,-1.1c-1.1,-0.3 -2,-0.5 -2.9,-0.7l0,12.2l0,0l0,2.7l0,0l0,1.7l0,0l0,2.5l0,0l0,1.5l4.7,1.5l0,-3.6l0,0l0,-0.7z" fill="#F2F2F2"/>
    <path id="path314" d="m399,367.7l-1.7,0.6l-0.9,0.4l-1.6,0.3l-1.5,-0.2c-0.3,-0.2 -0.4,-0.4 -0.2,-0.6c0.1,-0.1 0.2,-0.1 0.3,-0.2c0.1,-0.1 0.3,-0.1 0.4,-0.2l1.1,-0.4l4.1,-1.5l0,-2.7l-1.7,0.5l-5.5,2l-1,0.4c-1.5,0.6 -2.2,1.2 -2.2,1.8c0.1,0.8 1,1.5 2.7,1.9c0.7,0.2 1.4,0.3 2.1,0.4s1.4,0.1 2.2,0.1c1,0 2.1,-0.1 3.3,-0.3l0,-2.3l0.1,0z" fill="#F2F2F2"/>
    <path id="path316" d="m414.8,365.4c-0.9,-0.3 -1.7,-0.5 -2.5,-0.6s-1.7,-0.2 -2.5,-0.1c-0.9,0 -1.9,0.2 -2.8,0.3c-0.8,0.2 -1.7,0.4 -2.6,0.8l0,2.8l3.9,-1.4l1.6,-0.5l1.1,-0.3l1.4,0c0.3,0.1 0.6,0.2 0.7,0.4c0,0.2 -0.2,0.4 -0.8,0.6l-1.4,0.5l-6.5,2.4l0,2.7l3.5,-1.3l6.4,-2.3l0.7,-0.4c1.5,-0.5 2.2,-1.2 2.2,-1.9c0,-0.6 -0.8,-1.2 -2.4,-1.7z" fill="#F2F2F2"/>
   </g>
  </g>
  <g id="g338">
   <g id="g328">
    <g id="g326">
     <path id="path322" d="m697.2,110c0,-0.8 -0.4,-1.5 -1.1,-1.9c-4.5,-2.9 -23.4,-13.6 -51.5,-13.6c-26.9,0 -41.1,5.9 -45.1,8c-0.8,0.4 -1.2,1.2 -1.2,2c0,0 9.8,-2.9 47.5,-2.9c37.7,0 51.4,8.4 51.4,8.4z" fill="#0A0A0A"/>
     <path id="path324" d="m697.1,116.9l0,0l0,-6.9c0,0 -13.7,-8.4 -51.4,-8.4c-37.8,0 -47.5,2.9 -47.5,2.9l0,11l0,0c7.7,-1.3 21.2,-2.6 44.1,-2.6c28.5,0.1 45.9,2.4 54.8,4z" fill="#121212"/>
    </g>
   </g>
   <g id="g336">
    <g id="g334">
     <path id="path330" d="m108.8,110c0,-0.8 0.4,-1.5 1.1,-1.9c4.5,-2.9 23.4,-13.6 51.5,-13.6c26.9,0 41.1,5.9 45.1,8c0.8,0.4 1.2,1.2 1.2,2c0,0 -9.8,-2.9 -47.5,-2.9s-51.4,8.4 -51.4,8.4z" fill="#0A0A0A"/>
     <path id="path332" d="m108.9,116.9l0,0l0,-6.9c0,0 13.7,-8.4 51.4,-8.4c37.8,0 47.5,2.9 47.5,2.9l0,11l0,0c-7.7,-1.3 -21.2,-2.6 -44.1,-2.6c-28.5,0.1 -45.9,2.4 -54.8,4z" fill="#121212"/>
    </g>
   </g>
  </g>
  <g id="g376">
   <g id="g356">
    <g id="g354">
     <g id="g344">
      <path id="path340" d="m697.2,90.9c0,0 -32.7,-3.2 -50.6,-3.2s-48.4,2.4 -48.4,2.4s3.1,-44.7 4.8,-52c1.6,-7.3 7.7,-21.3 16.9,-27.9s11.9,-10.1 22.7,-10.1s25.4,6.4 34.6,21.4c9.3,15 20,69.4 20,69.4z" fill="#121212"/>
      <path id="path342" d="m598.7,83.3c0,0 26.1,-4.4 49,-4.4c22.8,0 47.9,4.4 47.9,4.4c1,4.7 1.6,7.6 1.6,7.6s-32.7,-3.2 -50.6,-3.2s-48.4,2.4 -48.4,2.4s0.2,-2.7 0.5,-6.8z" fill="#0A0A0A"/>
     </g>
     <g id="g352" opacity="0.08">
      <g id="g348">
       <path id="path346" d="m648.7,65.8c-2.1,1.7 -3.2,2.6 -3.2,2.6c-1.2,1.2 -1.9,2.7 -2,4.5l9.8,0l0,-2.6l-6.3,0c0.3,-0.5 1,-1.2 2.1,-1.9c1.4,-0.9 2.3,-1.6 2.7,-2.1c0.9,-1 1.3,-2.1 1.3,-3.3c0,-1.4 -0.5,-2.5 -1.4,-3.3c-0.9,-0.8 -2.1,-1.2 -3.5,-1.2c-3.1,0 -4.7,1.7 -4.7,5l2.7,0c0,-1.8 0.7,-2.7 2.1,-2.7c1.3,0 2,0.7 2,2.1c0.2,1.1 -0.4,2 -1.6,2.9z" fill="#FFFFFF"/>
      </g>
      <path id="path350" d="m631.1,67.3l3,0c1.5,0 2.3,0.6 2.4,1.9c0.1,1.2 0.2,2.5 0.3,3.8l3.3,0l0,-0.4c-0.5,-0.2 -0.7,-0.7 -0.7,-1.5c0,-0.2 0,-0.4 0.1,-0.8l0,-0.7c0,-1.7 -0.6,-2.9 -1.8,-3.5c1.4,-0.5 2.2,-1.6 2.2,-3.4c0,-1.3 -0.4,-2.3 -1.3,-3c-0.8,-0.7 -1.9,-1 -3.2,-1l-7.3,0l0,14.3l3,0l0,-5.7zm0,-6.2l3.7,0c1.4,0 2.1,0.6 2.1,1.9c0,1.3 -0.8,1.9 -2.3,1.9l-3.5,0l0,-3.8z" fill="#FFFFFF"/>
     </g>
    </g>
   </g>
   <g id="g374">
    <g id="g372">
     <g id="g362">
      <path id="path358" d="m108.8,90.9c0,0 32.7,-3.2 50.6,-3.2s48.3,2.4 48.3,2.4s-3.1,-44.7 -4.8,-52c-1.6,-7.3 -7.7,-21.3 -16.9,-27.9c-9.1,-6.7 -11.8,-10.1 -22.6,-10.1c-10.8,0 -25.4,6.4 -34.6,21.4s-20,69.4 -20,69.4z" fill="#121212"/>
      <path id="path360" d="m207.3,83.3c0,0 -26.1,-4.4 -49,-4.4c-22.8,0 -47.9,4.4 -47.9,4.4c-1,4.7 -1.6,7.6 -1.6,7.6s32.7,-3.2 50.6,-3.2s48.3,2.4 48.3,2.4s-0.1,-2.7 -0.4,-6.8z" fill="#0A0A0A"/>
     </g>
     <g id="g370" opacity="0.08">
      <g id="g366">
       <path id="path364" d="m173.3,65.8c-2.1,1.7 -3.2,2.6 -3.2,2.6c-1.2,1.2 -1.9,2.7 -2,4.5l9.8,0l0,-2.6l-6.2,0c0.3,-0.5 1,-1.2 2.1,-1.9c1.4,-0.9 2.3,-1.6 2.7,-2.1c0.9,-1 1.3,-2.1 1.3,-3.3c0,-1.4 -0.5,-2.5 -1.4,-3.3c-0.9,-0.8 -2.1,-1.2 -3.5,-1.2c-3.1,0 -4.7,1.7 -4.7,5l2.7,0c0,-1.8 0.7,-2.7 2.1,-2.7c1.3,0 2,0.7 2,2.1c0.1,1.1 -0.5,2 -1.7,2.9z" fill="#FFFFFF"/>
      </g>
      <polygon id="polygon368" points="164.79998779296875,70.30000305175781 157.8000030517578,70.30000305175781 157.8000030517578,58.600006103515625 154.6999969482422,58.600006103515625 154.6999969482422,72.89999389648438 164.79998779296875,72.89999389648438 " fill="#FFFFFF"/>
     </g>
    </g>
   </g>
  </g>
  <g id="g406">
   <g id="g392">
    <path id="path378" d="m547.6,134.7c0,2.1 -1.5,3.8 -4.1,3.8s-4.1,-1.7 -4.1,-3.8c0,-2 1.5,-3.8 4.1,-3.8s4.1,1.7 4.1,3.8zm-6.7,0c0,1.4 0.8,2.7 2.6,2.7s2.6,-1.4 2.6,-2.7c0,-1.4 -0.8,-2.7 -2.6,-2.7s-2.6,1.3 -2.6,2.7z" fill="#CCCCCC"/>
    <path id="path380" d="m548.9,131.1l3.8,0c2.4,0 2.9,1.3 2.9,2.2s-0.5,2.2 -2.9,2.2l-2.3,0l0,2.8l-1.5,0l0,-7.2zm1.5,3.4l2.2,0c0.7,0 1.5,-0.3 1.5,-1.2s-0.7,-1.2 -1.5,-1.2l-2.2,0l0,2.4z" fill="#CCCCCC"/>
    <path id="path382" d="m556.1,131.1l6.9,0l0,1.1l-2.7,0l0,6.1l-1.5,0l0,-6.2l-2.7,0l0,-1z" fill="#CCCCCC"/>
    <path id="path384" d="m564.1,131.1l1.5,0l0,7.2l-1.5,0l0,-7.2z" fill="#CCCCCC"/>
    <path id="path386" d="m575.1,134.7c0,2.1 -1.5,3.8 -4.1,3.8s-4.1,-1.7 -4.1,-3.8c0,-2 1.5,-3.8 4.1,-3.8s4.1,1.7 4.1,3.8zm-6.7,0c0,1.4 0.8,2.7 2.6,2.7s2.6,-1.4 2.6,-2.7c0,-1.4 -0.8,-2.7 -2.6,-2.7s-2.6,1.3 -2.6,2.7z" fill="#CCCCCC"/>
    <path id="path388" d="m576.5,131.1l1.6,0l3.9,5.3l0,0l0,-5.3l1.4,0l0,7.2l-1.6,0l-3.9,-5.3l0,0l0,5.3l-1.4,0l0,-7.2z" fill="#CCCCCC"/>
    <path id="path390" d="m586.2,135.9c0,1.1 1,1.5 2.2,1.5c1.3,0 1.8,-0.6 1.8,-1.1c0,-0.6 -0.4,-0.8 -0.7,-0.9c-0.6,-0.2 -1.4,-0.3 -2.6,-0.6c-1.5,-0.3 -1.9,-1.1 -1.9,-1.8c0,-1.5 1.6,-2.1 3.1,-2.1c1.8,0 3.3,0.8 3.3,2.3l-1.5,0c-0.1,-0.9 -0.8,-1.3 -1.8,-1.3c-0.7,0 -1.6,0.2 -1.6,0.9c0,0.5 0.4,0.8 1,0.9c0.1,0 2,0.4 2.5,0.6c1.1,0.3 1.7,1.1 1.7,1.8c0,1.6 -1.7,2.3 -3.4,2.3c-2,0 -3.5,-0.8 -3.6,-2.6l1.5,0l0,0.1z" fill="#CCCCCC"/>
   </g>
   <g id="g404">
    <path id="path394" d="m222.2,135.9c0,1.1 1,1.5 2.2,1.5c1.3,0 1.8,-0.6 1.8,-1.1c0,-0.6 -0.4,-0.8 -0.7,-0.9c-0.6,-0.2 -1.4,-0.3 -2.6,-0.6c-1.5,-0.3 -1.9,-1.1 -1.9,-1.8c0,-1.5 1.6,-2.1 3.1,-2.1c1.8,0 3.3,0.8 3.3,2.3l-1.5,0c-0.1,-0.9 -0.8,-1.3 -1.8,-1.3c-0.7,0 -1.6,0.2 -1.6,0.9c0,0.5 0.4,0.8 1,0.9c0.1,0 2,0.4 2.5,0.6c1.1,0.3 1.7,1.1 1.7,1.8c0,1.6 -1.7,2.3 -3.4,2.3c-2,0 -3.5,-0.8 -3.6,-2.6l1.5,0l0,0.1z" fill="#CCCCCC"/>
    <path id="path396" d="m228.9,131.1l1.5,0l0,2.9l3.9,0l0,-2.9l1.5,0l0,7.2l-1.5,0l0,-3.2l-3.9,0l0,3.2l-1.5,0l0,-7.2z" fill="#CCCCCC"/>
    <path id="path398" d="m239.9,131.1l1.6,0l3.3,7.2l-1.6,0l-0.8,-1.9l-3.4,0l-0.8,1.9l-1.5,0l3.2,-7.2zm-0.5,4.3l2.6,0l-1.3,-3.1l0,0l-1.3,3.1z" fill="#CCCCCC"/>
    <path id="path400" d="m245.6,131.1l4.1,0c1.9,0 2.8,0.7 2.8,1.9c0,1.4 -1.1,1.7 -1.4,1.8l0,0c0.5,0.1 1.3,0.4 1.3,1.5c0,0.8 0.1,1.6 0.5,1.9l-1.6,0c-0.2,-0.3 -0.2,-0.7 -0.2,-1.1c0,-1.3 -0.3,-1.9 -1.7,-1.9l-2.2,0l0,3l-1.5,0l0,-7.1l-0.1,0zm1.5,3.2l2.5,0c1,0 1.5,-0.4 1.5,-1.1c0,-0.9 -0.7,-1.1 -1.5,-1.1l-2.4,0l0,2.2l-0.1,0z" fill="#CCCCCC"/>
    <path id="path402" d="m254.1,131.1l6.2,0l0,1.1l-4.7,0l0,1.9l4.3,0l0,1l-4.3,0l0,2.1l4.7,0l0,1.1l-6.2,0l0,-7.2l0,0z" fill="#CCCCCC"/>
   </g>
  </g>
  <text fill="#000000" stroke="#000" stroke-width="0" x="260" y="60.54999" id="svg_2" font-size="24" font-family="'Rosario'" text-anchor="start" xml:space="preserve"/>
  <text filter="url(#svg_1_blur)" stroke-width="2" font-weight="bold" xml:space="preserve" text-anchor="start" font-family="Noto Sans JP" font-size="24" id="svg_1" y="59.54999" x="215.1875" stroke="#000" fill="#000000">BRAKE                          THROTTLE</text>
  <text stroke-width="0" font-weight="bold" xml:space="preserve" text-anchor="start" font-family="Noto Sans JP" font-size="24" id="svg_3" y="60" x="215.1875" stroke="#000" fill="#ffffff">BRAKE                          THROTTLE</text>
  <text filter="url(#svg_1_blur)" stroke-width="2" font-weight="bold" xml:space="preserve" text-anchor="start" font-family="Noto Sans JP" font-size="24" id="svg_9" y="470" x="235.1875" stroke="#000" fill="#000000">STEER</text>
  <text stroke-width="0" font-weight="bold" xml:space="preserve" text-anchor="start" font-family="Noto Sans JP" font-size="24" id="svg_8" y="470" x="235" stroke="#000" fill="#ffffff">STEER</text>
 </g>
</svg>